<?xml version="1.0" encoding="UTF-8" standalone="no"?>
<!-- Created with Inkscape (http://www.inkscape.org/) -->

<svg
   width="480"
   height="320"
   viewBox="0 0 120 80"
   version="1.1"
   id="svg1"
   inkscape:version="1.3.2 (091e20e, 2023-11-25, custom)"
   sodipodi:docname="rads_dial2.svg"
   inkscape:export-filename="rads_dial.jpg"
   inkscape:export-xdpi="96"
   inkscape:export-ydpi="96"
   xmlns:inkscape="http://www.inkscape.org/namespaces/inkscape"
   xmlns:sodipodi="http://sodipodi.sourceforge.net/DTD/sodipodi-0.dtd"
   xmlns="http://www.w3.org/2000/svg"
   xmlns:svg="http://www.w3.org/2000/svg"
   xmlns:rdf="http://www.w3.org/1999/02/22-rdf-syntax-ns#"
   xmlns:cc="http://creativecommons.org/ns#"
   xmlns:dc="http://purl.org/dc/elements/1.1/">
  <title
     id="title1">PipBoy rad count dial</title>
  <sodipodi:namedview
     id="namedview1"
     pagecolor="#ffffff"
     bordercolor="#111111"
     borderopacity="1"
     inkscape:showpageshadow="0"
     inkscape:pageopacity="0"
     inkscape:pagecheckerboard="1"
     inkscape:deskcolor="#d1d1d1"
     inkscape:document-units="px"
     showgrid="false"
     inkscape:zoom="1.524504"
     inkscape:cx="232.20667"
     inkscape:cy="384.71529"
     inkscape:current-layer="layer1" />
  <defs
     id="defs1">
    <rect
       x="-48.540378"
       y="-118.72714"
       width="91.177196"
       height="60.347497"
       id="rect1" />
    <inkscape:path-effect
       effect="curvestitching"
       id="path-effect5"
       is_visible="true"
       lpeversion="1"
       count="101"
       startpoint_edge_variation="0;1"
       startpoint_spacing_variation="0;1"
       endpoint_edge_variation="0;1"
       endpoint_spacing_variation="0;1"
       strokepath="M0,0 L1,0"
       prop_scale="1"
       scale_y_rel="false" />
    <inkscape:path-effect
       effect="curvestitching"
       id="path-effect3"
       is_visible="true"
       lpeversion="1"
       count="21"
       startpoint_edge_variation="0;1"
       startpoint_spacing_variation="0;1"
       endpoint_edge_variation="0;1"
       endpoint_spacing_variation="0;1"
       strokepath="M0,0 L1,0"
       prop_scale="1"
       scale_y_rel="false" />
    <rect
       x="-48.540379"
       y="-118.72714"
       width="91.177193"
       height="60.347496"
       id="rect1-5" />
    <rect
       x="-48.540379"
       y="-118.72714"
       width="91.177193"
       height="60.347496"
       id="rect2" />
    <rect
       x="-48.540379"
       y="-118.72714"
       width="91.177193"
       height="60.347496"
       id="rect3" />
    <rect
       x="-48.540379"
       y="-118.72714"
       width="91.177193"
       height="60.347496"
       id="rect4" />
    <rect
       x="-48.540379"
       y="-118.72714"
       width="91.177193"
       height="60.347496"
       id="rect5" />
    <rect
       x="-48.540379"
       y="-118.72714"
       width="91.177193"
       height="60.347496"
       id="rect6" />
    <rect
       x="-48.540379"
       y="-118.72714"
       width="91.177193"
       height="60.347496"
       id="rect9" />
    <rect
       x="-48.540379"
       y="-118.72714"
       width="307.64104"
       height="47.884426"
       id="rect10" />
  </defs>
  <g
     inkscape:label="Layer 1"
     inkscape:groupmode="layer"
     id="layer1">
    <rect
       style="fill:#000000;fill-opacity:1;stroke:#000000;stroke-width:1;stroke-dasharray:none;stroke-opacity:1"
       id="rect8"
       width="160.87199"
       height="85.10965"
       x="-20.826447"
       y="-7.2235017" />
    <path
       style="color:#000000;fill:#026f06;fill-opacity:1;-inkscape-stroke:none"
       d="m 59.229341,1.447854 v 5.0625 h 1.5 v -5.0625 z m -15.945313,2.83789 -1.427734,0.458985 1.544922,4.789062 1.427734,-0.458984 z m 33.390625,0 -1.542969,4.789063 1.427735,0.458984 1.542969,-4.789062 z m -49.083984,8.205078 -1.214844,0.878907 2.925781,4.042968 1.214844,-0.878906 z m 64.777344,0 -2.925782,4.042969 1.214844,0.878906 2.925781,-4.042968 z m -77.535157,12.421875 -0.878906,1.214844 4.042969,2.925781 0.880859,-1.214844 z m 90.292974,0 -4.04297,2.925781 0.87891,1.214844 4.04296,-2.925781 z m -98.9179731,15.480469 -0.4589844,1.42773 4.7890625,1.54297 0.460937,-1.42578 z m 107.5429731,0 -4.78906,1.54492 0.45898,1.42578 4.79102,-1.54297 z M 2.9109819,57.766216 v 1.5 H 7.973482 v -1.5 z m 109.0742181,0 v 1.5 h 5.0625 v -1.5 z m -101.447265,15.90039 -4.7890625,1.54492 0.4589844,1.42773 4.7910151,-1.54492 z m 98.882815,0 -0.45898,1.42773 4.78906,1.54492 0.46094,-1.42773 z m -91.423831,14.312504 -4.042969,2.92578 0.878906,1.21484 4.044922,-2.92578 z m 83.964851,0 -0.87891,1.21484 4.04297,2.92578 0.8789,-1.21484 z m -72.660164,11.64062 -2.925781,4.04298 1.214844,0.8789 2.925781,-4.04297 z m 61.355469,0 -1.214844,0.87891 2.925782,4.04297 1.214843,-0.8789 z m -47.255859,7.87891 -1.544922,4.78907 1.427734,0.45898 1.544922,-4.78906 z m 33.158203,0 -1.427735,0.45899 1.542969,4.78906 1.427735,-0.45898 z m -17.330078,3.02344 v 5.0625 h 1.5 v -5.0625 z"
       id="circle1" />
    <path
       style="color:#000000;fill:#026f06;fill-opacity:1;-inkscape-stroke:none"
       d="m 59.478366,1.448831 v 2.93946 h 1 v -2.93946 z m -2.572265,0.0977 -0.998047,0.0625 0.185547,2.93164 0.998046,-0.0625 z m 6.144531,0 -0.183594,2.93164 0.998047,0.0625 0.183594,-2.93164 z m -9.683594,0.34961 -0.992187,0.125 0.367187,2.91211 0.992188,-0.125 z m 13.222656,0 -0.365234,2.91211 0.992187,0.125 0.365235,-2.91211 z m -16.71875,0.5918 -0.982422,0.18554 0.546875,2.88086 0.982422,-0.18555 z m 20.214844,0 -0.544922,2.88085 0.982422,0.18555 0.544922,-2.88086 z m -23.658203,0.82421 -0.96875,0.24805 0.722656,2.83594 0.96875,-0.2461 z m 27.101562,0 -0.722656,2.83789 0.96875,0.2461 0.72461,-2.83594 z m -30.484375,1.05079 -0.951171,0.30664 0.896484,2.77929 0.951172,-0.30664 z m 33.867188,0 -0.896484,2.77929 0.951171,0.30664 0.896485,-2.77929 z m -37.177734,1.26171 -0.929688,0.36719 1.066406,2.71289 0.929688,-0.36523 z m 40.490234,0 -1.068359,2.71485 0.93164,0.36523 1.066406,-2.71289 z m -43.720703,1.46875 -0.90625,0.42383 1.232422,2.63672 0.90625,-0.42187 z m 46.951172,0 -1.232422,2.63868 0.90625,0.42187 1.232422,-2.63672 z m -50.091797,1.66407 -0.878906,0.48046 1.394531,2.55079 0.876953,-0.48047 z m 53.232422,0 -1.392578,2.55078 0.876953,0.48047 1.392578,-2.55079 z m -56.275391,1.85156 -0.845703,0.53515 1.548828,2.45313 0.845703,-0.53516 z m 59.316406,0 -1.548828,2.45312 0.845703,0.53516 1.548828,-2.45313 z m -62.248047,2.0293 -0.810546,0.58593 1.699218,2.34766 0.810547,-0.58594 z m 65.181641,0 -1.699219,2.34765 0.810547,0.58594 1.699219,-2.34766 z m -67.998047,2.19531 -0.769531,0.63672 1.841797,2.23437 0.771484,-0.63672 z m 70.8125,0 -1.84375,2.23437 0.771485,0.63672 1.84375,-2.23437 z m -73.498047,2.35547 -0.730468,0.68554 1.980468,2.10938 0.730469,-0.6836 z m 76.185551,0 -1.980473,2.11132 0.728516,0.6836 1.980467,-2.10938 z m -78.736332,2.50586 -0.683594,0.72851 2.111328,1.98047 0.683594,-0.72852 z m 81.285152,0 -2.10937,1.98046 0.68359,0.72852 2.11134,-1.98047 z m -83.687496,2.64453 -0.636718,0.77148 2.232421,1.84375 0.636719,-0.77148 z m 86.091806,0 -2.23438,1.84375 0.63672,0.77148 2.23438,-1.84375 z m -88.337899,2.77539 -0.587891,0.81054 2.347656,1.69922 0.587891,-0.81054 z m 90.583989,0 -2.34766,1.69922 0.58594,0.81054 2.34765,-1.69922 z m -92.666021,2.89844 -0.533203,0.8457 2.453125,1.54883 0.533203,-0.84571 z m 94.746101,0 -2.45314,1.54882 0.53517,0.84571 2.45312,-1.54883 z m -96.650397,3.00972 -0.480469,0.87695 2.550781,1.39258 0.478516,-0.87695 z m 98.556647,0 -2.55078,1.39258 0.48047,0.87695 2.54882,-1.39258 z m -100.277351,3.11133 -0.423828,0.90625 2.636719,1.23242 0.423828,-0.90625 z m 101.998051,0 -2.63672,1.23242 0.42187,0.90625 2.63868,-1.23242 z m -103.5253948,3.20703 -0.3652344,0.92969 2.7148442,1.068359 0.365234,-0.931639 z m 105.0507748,0 -2.71288,1.06641 0.36524,0.931639 2.71483,-1.068359 z M 6.1307096,40.63243 5.824069,41.5836 8.605319,42.48008 8.91196,41.52891 Z m 107.6953104,0 -2.7793,0.89648 0.30664,0.95117 2.7793,-0.89648 z M 5.0232877,43.99571 4.7752408,44.96641 7.611178,45.68907 7.859225,44.72032 Z m 109.9121023,0 -2.83593,0.72461 0.24609,0.96875 2.83789,-0.72266 z m -110.798821,3.43164 -0.1855469,0.98242 2.8789062,0.54492 0.1875,-0.98242 z m 111.685541,0 -2.88086,0.54492 0.18556,0.98242 2.88085,-0.54492 z m -112.3398379,3.48633 -0.1230469,0.99218 2.9121094,0.36524 0.125,-0.99219 z m 112.9921979,0 -2.91211,0.36523 0.125,0.99219 2.91211,-0.36524 z m -113.4023541,3.5332 -0.0625,0.99805 2.9316406,0.18359 0.0625,-0.99805 z m 113.8144541,0 -2.93164,0.18359 0.0625,0.99805 2.93164,-0.18359 z M 2.9119596,58.01719 v 1 h 2.9375 v -1 z m 111.1953104,0 v 1 h 2.93945 v -1 z m -108.1660135,3.38672 -2.9316406,0.18555 0.0625,0.99804 2.9316406,-0.18554 z m 108.0761735,0 -0.0625,0.99805 2.93164,0.18554 0.0625,-0.99804 z M 6.2713346,64.76133 3.3592252,65.12852 3.4822721,66.12071 6.3963346,65.75352 Z m 107.4160254,0 -0.125,0.99219 2.91211,0.36719 0.125,-0.99219 z M 6.8299283,68.07774 3.9510221,68.62461 4.136569,69.60704 7.0174283,69.06016 Z m 106.2968817,0 -0.18556,0.98242 2.88087,0.54688 0.18555,-0.98243 z M 7.611178,71.34532 4.7752408,72.06797 5.0232877,73.03672 7.859225,72.31407 Z m 104.734382,0 -0.24609,0.96875 2.83593,0.72265 0.24805,-0.96875 z M 8.605319,74.5543 5.824069,75.45079 6.1307096,76.40196 8.91196,75.50547 Z m 102.748051,0 -0.30665,0.95117 2.7793,0.89649 0.30665,-0.95117 z m -101.550785,3.14063 -2.7148442,1.0664 0.3652344,0.92969 2.7148438,-1.06641 z m 100.353525,0 -0.36524,0.92968 2.71288,1.06641 0.36719,-0.92969 z m -98.9629,3.06445 -2.636719,1.23242 0.423828,0.90625 2.636719,-1.23242 z m 97.57031,0 -0.42188,0.90625 2.63672,1.23242 0.42383,-0.90625 z m -95.992185,2.98047 -2.550781,1.39258 0.480469,0.8789 2.548828,-1.39453 z m 94.416025,0 -0.48047,0.87695 2.55078,1.39453 0.47851,-0.8789 z m -92.662119,2.88672 -2.453125,1.54882 0.533203,0.84571 2.453125,-1.54883 z m 90.908209,0 -0.53517,0.84375 2.45314,1.55078 0.53515,-0.84571 z m -88.986334,2.78125 -2.347656,1.69922 0.587891,0.81054 2.347656,-1.69922 z m 87.062504,0 -0.58594,0.81054 2.34766,1.69922 0.58594,-0.81054 z m -84.980473,2.67187 -2.232421,1.84375 0.636718,0.76953 2.232422,-1.84179 z m 82.898443,0 -0.63672,0.77149 2.23438,1.84179 0.63672,-0.76953 z m -80.664068,2.54883 -2.111328,1.98047 0.683594,0.73047 2.111328,-1.98047 z m 78.431638,0 -0.68359,0.73047 2.10937,1.98047 0.68556,-0.73047 z m -76.058591,2.41992 -1.980468,2.11133 0.730468,0.68359 1.980469,-2.11132 z m 73.683594,0 -0.728516,0.6836 1.980473,2.11132 0.72851,-0.68359 z m -71.175781,2.28125 -1.841797,2.23242 0.769531,0.63672 1.84375,-2.23242 z m 68.667969,0 -0.771485,0.63672 1.84375,2.23242 0.771485,-0.63672 z m -66.035157,2.13086 -1.699218,2.34766 0.810546,0.58789 1.699219,-2.34766 z m 63.404297,0 -0.810547,0.58789 1.699219,2.34766 0.810547,-0.58789 z m -60.658203,1.97656 -1.548828,2.45313 0.845703,0.5332 1.548828,-2.45312 z m 57.910156,0 -0.845703,0.53321 1.548828,2.45312 0.845703,-0.5332 z m -55.054687,1.8086 -1.394531,2.54883 0.878906,0.48046 1.392578,-2.55078 z m 52.201172,0 -0.876953,0.47851 1.392578,2.55078 0.876953,-0.48046 z m -49.25,1.63281 -1.232422,2.63672 0.90625,0.42383 1.232422,-2.63672 z m 46.298828,0 -0.90625,0.42383 1.232422,2.63672 0.90625,-0.42383 z m -43.257813,1.44922 -1.066406,2.71484 0.929688,0.36524 1.066406,-2.71485 z m 40.216797,0 -0.93164,0.36523 1.068359,2.71485 0.929687,-0.36524 z m -37.097656,1.25586 -0.896484,2.78125 0.951171,0.30664 0.896485,-2.78125 z m 33.976562,0 -0.951171,0.30664 0.896484,2.78125 0.951172,-0.30664 z m -30.785156,1.05273 -0.722656,2.83594 0.96875,0.24805 0.722656,-2.83594 z m 27.59375,0 -0.96875,0.24805 0.722656,2.83594 0.970704,-0.24805 z m -24.339844,0.8418 -0.546875,2.88086 0.982422,0.18555 0.546875,-2.87891 z m 21.087891,0 -0.982422,0.18555 0.544922,2.88086 0.982422,-0.18555 z m -17.78125,0.62109 -0.367187,2.91407 0.992187,0.12304 0.367188,-2.91211 z m 14.474609,0 -0.992187,0.125 0.365234,2.91211 0.992188,-0.12304 z m -11.123046,0.39258 -0.185547,2.93164 0.998047,0.0625 0.185546,-2.93164 z m 7.771484,0 -0.998047,0.0625 0.183594,2.93164 0.998047,-0.0625 z m -4.386719,0.1543 v 2.9375 h 1 v -2.9375 z"
       id="path3" />
    <circle
       style="fill:none;fill-opacity:1;stroke:#026f06;stroke-width:1.42309;stroke-dasharray:none;stroke-opacity:1"
       id="path1"
       cx="59.97934"
       cy="58.516212"
       r="56.942207" />
    <text
       xml:space="preserve"
       transform="matrix(0.25,0,0,0.25,29.827038,54.240844)"
       id="text3"
       style="font-size:40px;white-space:pre;shape-inside:url(#rect3);display:inline;fill:none;fill-opacity:1;stroke:#026f06;stroke-width:4;stroke-dasharray:none;stroke-opacity:1"><tspan
         x="-48.541016"
         y="-82.331555"
         id="tspan2"><tspan
           style="font-family:'DejaVu Sans';-inkscape-font-specification:'DejaVu Sans'"
           id="tspan1">20</tspan></tspan></text>
    <text
       xml:space="preserve"
       transform="matrix(0.25,0,0,0.25,102.99773,55.536673)"
       id="text4"
       style="font-size:40px;white-space:pre;shape-inside:url(#rect4);display:inline;fill:none;fill-opacity:1;stroke:#026f06;stroke-width:4;stroke-dasharray:none;stroke-opacity:1"><tspan
         x="-48.541016"
         y="-82.331555"
         id="tspan4"><tspan
           style="font-family:'DejaVu Sans';-inkscape-font-specification:'DejaVu Sans'"
           id="tspan3">80</tspan></tspan></text>
    <text
       xml:space="preserve"
       transform="matrix(0.25,0,0,0.25,52.121337,38.645933)"
       id="text5"
       style="font-size:40px;white-space:pre;shape-inside:url(#rect5);display:inline;fill:none;fill-opacity:1;stroke:#026f06;stroke-width:4;stroke-dasharray:none;stroke-opacity:1"><tspan
         x="-48.541016"
         y="-82.331555"
         id="tspan6"><tspan
           style="font-family:'DejaVu Sans';-inkscape-font-specification:'DejaVu Sans'"
           id="tspan5">40</tspan></tspan></text>
    <text
       xml:space="preserve"
       transform="matrix(0.25,0,0,0.25,80.835269,38.145933)"
       id="text6"
       style="font-size:40px;white-space:pre;shape-inside:url(#rect6);display:inline;fill:none;fill-opacity:1;stroke:#026f06;stroke-width:4;stroke-dasharray:none;stroke-opacity:1"><tspan
         x="-48.541016"
         y="-82.331555"
         id="tspan8"><tspan
           style="font-family:'DejaVu Sans';-inkscape-font-specification:'DejaVu Sans'"
           id="tspan7">60</tspan></tspan></text>
    <rect
       style="fill:#000000;fill-opacity:1;stroke:#000000;stroke-width:1;stroke-dasharray:none;stroke-opacity:1"
       id="rect7"
       width="160.87199"
       height="85.10965"
       x="-20.662458"
       y="59.35553" />
    <text
       xml:space="preserve"
       transform="matrix(0.25,0,0,0.25,21.839858,82.446739)"
       id="text1-6"
       style="font-size:40px;white-space:pre;shape-inside:url(#rect1-5);display:inline;fill:none;fill-opacity:1;stroke:#026f06;stroke-width:4;stroke-dasharray:none;stroke-opacity:1"><tspan
         x="-48.541016"
         y="-82.331555"
         id="tspan10"><tspan
           style="font-family:'DejaVu Sans';-inkscape-font-specification:'DejaVu Sans'"
           id="tspan9">0</tspan></tspan></text>
    <text
       xml:space="preserve"
       transform="matrix(0.25,0,0,0.25,107.17301,82.930666)"
       id="text1"
       style="font-size:40px;white-space:pre;shape-inside:url(#rect2);display:inline;fill:none;fill-opacity:1;stroke:#026f06;stroke-width:4;stroke-dasharray:none;stroke-opacity:1"><tspan
         x="-48.541016"
         y="-82.331555"
         id="tspan12"><tspan
           style="font-family:'DejaVu Sans';-inkscape-font-specification:'DejaVu Sans'"
           id="tspan11">100</tspan></tspan></text>
    <text
       xml:space="preserve"
       transform="matrix(0.25,0,0,0.25,34.034468,95.39374)"
       id="text9"
       style="font-size:40px;white-space:pre;shape-inside:url(#rect10);display:inline;fill:none;fill-opacity:1;stroke:#026f06;stroke-width:4;stroke-dasharray:none;stroke-opacity:1"><tspan
         x="-48.541016"
         y="-82.331555"
         id="tspan14"><tspan
           style="font-family:'DejaVu Sans';-inkscape-font-specification:'DejaVu Sans'"
           id="tspan13">Counts/Second</tspan></tspan></text>
  </g>
  <metadata
     id="metadata1">
    <rdf:RDF>
      <cc:Work
         rdf:about="">
        <cc:license
           rdf:resource="http://creativecommons.org/publicdomain/zero/1.0/" />
        <dc:title>PipBoy rad count dial</dc:title>
      </cc:Work>
      <cc:License
         rdf:about="http://creativecommons.org/publicdomain/zero/1.0/">
        <cc:permits
           rdf:resource="http://creativecommons.org/ns#Reproduction" />
        <cc:permits
           rdf:resource="http://creativecommons.org/ns#Distribution" />
        <cc:permits
           rdf:resource="http://creativecommons.org/ns#DerivativeWorks" />
      </cc:License>
    </rdf:RDF>
  </metadata>
</svg>
